<svg width="22" height="22" viewBox="0 0 22 22" fill="none" xmlns="http://www.w3.org/2000/svg">
<path fill-rule="evenodd" clip-rule="evenodd" d="M14.7648 2.54506C12.9427 1.73322 10.9071 1.5321 8.96148 1.97169C7.01583 2.41129 5.2644 3.46804 3.96841 4.98435C2.67242 6.50066 1.9013 8.39528 1.77005 10.3856C1.63881 12.376 2.15447 14.3555 3.24014 16.0288C4.32581 17.7022 5.92331 18.9798 7.79439 19.671C9.66547 20.3623 11.7099 20.4302 13.6227 19.8647C15.5355 19.2991 17.2143 18.1304 18.4086 16.5327C19.603 14.9351 20.2489 12.9942 20.25 10.9996V10.08C20.25 9.66577 20.5858 9.32999 21 9.32999C21.4142 9.32999 21.75 9.66577 21.75 10.08V11C21.7487 13.3181 20.998 15.5742 19.61 17.4309C18.222 19.2876 16.271 20.6458 14.048 21.3031C11.825 21.9604 9.44905 21.8815 7.27456 21.0781C5.10006 20.2747 3.2435 18.79 1.98178 16.8453C0.720061 14.9006 0.120776 12.6001 0.273303 10.287C0.42583 7.97382 1.322 5.77197 2.82815 4.00977C4.3343 2.24757 6.36974 1.01945 8.6309 0.508573C10.8921 -0.00230628 13.2578 0.231428 15.3753 1.17492C15.7536 1.3435 15.9237 1.78688 15.7551 2.16524C15.5865 2.54359 15.1431 2.71364 14.7648 2.54506Z" fill="#00BDC9"/>
<path fill-rule="evenodd" clip-rule="evenodd" d="M21.5301 2.46939C21.8231 2.76214 21.8233 3.23701 21.5306 3.53005L11.5306 13.5401C11.39 13.6808 11.1992 13.7599 11.0002 13.76C10.8012 13.76 10.6104 13.681 10.4697 13.5403L7.46968 10.5403C7.17678 10.2474 7.17678 9.77255 7.46968 9.47966C7.76257 9.18676 8.23744 9.18676 8.53034 9.47966L10.9997 11.9491L20.4694 2.46992C20.7622 2.17688 21.237 2.17665 21.5301 2.46939Z" fill="#00BDC9"/>
</svg>
